<svg height="24" viewBox="0 0 60 58" width="24" xmlns="http://www.w3.org/2000/svg"><g id="Page-1" fill="none" fill-rule="evenodd"><g id="033---network-warning" fill-rule="nonzero"><path id="Shape" d="m30 49c-.5522847 0-1-.4477153-1-1v-14c0-.5522847.4477153-1 1-1s1 .4477153 1 1v14c0 .5522847-.4477153 1-1 1z" fill="#464f5d"/><path id="Shape" d="m30 34h17.518c.7136287-.0018009 1.3722317-.3837101 1.7282659-1.0021831.3560343-.6184729.3555519-1.3797956-.0012659-1.9978169l-17.517-30c-.3583087-.61486353-1.0163524-.99301639-1.728-.99301639s-1.3696913.37815286-1.728.99301639l-17.517 30c-.3568178.6180213-.3573002 1.379344-.0012659 1.9978169.3560342.618473 1.0146372 1.0003822 1.7282659 1.0021831z" fill="#f0c419"/><path id="Shape" d="m30 22c-1.1476875.0000795-2.120751-.8438389-2.283-1.98l-1.151-8.06c-.142345-.9955673.1543686-2.00390933.8132461-2.76370984.6588775-.7598005 1.6150619-1.19626804 2.6207539-1.19629016 1.005692.00002212 1.9618764.43648966 2.6207539 1.19629016.6588775.75980051.9555911 1.76814254.8132461 2.76370984l-1.151 8.06c-.162249 1.1361611-1.1353125 1.9800795-2.283 1.98z" fill="#464f5d"/><circle id="Oval" cx="30" cy="28" fill="#464f5d" r="2"/><circle id="Oval" cx="30" cy="53" fill="#f29c1f" r="5"/><g fill="#e64c3c"><circle id="Oval" cx="1" cy="53" r="1"/><circle id="Oval" cx="5" cy="53" r="1"/><circle id="Oval" cx="9" cy="53" r="1"/><circle id="Oval" cx="13" cy="53" r="1"/><circle id="Oval" cx="17" cy="53" r="1"/><circle id="Oval" cx="21" cy="53" r="1"/><circle id="Oval" cx="39" cy="53" r="1"/><circle id="Oval" cx="43" cy="53" r="1"/><circle id="Oval" cx="47" cy="53" r="1"/><circle id="Oval" cx="51" cy="53" r="1"/><circle id="Oval" cx="55" cy="53" r="1"/><circle id="Oval" cx="59" cy="53" r="1"/></g></g></g></svg>