<?xml version="1.0" standalone="no"?>
<!DOCTYPE svg PUBLIC "-//W3C//DTD SVG 20010904//EN"
 "http://www.w3.org/TR/2001/REC-SVG-20010904/DTD/svg10.dtd">
<svg version="1.0" xmlns="http://www.w3.org/2000/svg"
 width="600.000000pt" height="600.000000pt" viewBox="0 0 600.000000 600.000000"
 preserveAspectRatio="xMidYMid meet">

<g transform="translate(0.000000,600.000000) scale(0.100000,-0.100000)"
fill="#000000" stroke="none">
<path d="M1615 5989 c-404 -58 -756 -228 -1044 -504 -260 -250 -438 -558 -525
-910 -46 -184 -46 -199 -46 -1575 0 -1376 0 -1391 46 -1575 49 -198 154 -438
259 -594 301 -447 760 -738 1286 -815 160 -24 2658 -24 2818 0 614 90 1136
472 1406 1029 90 187 140 348 169 546 24 160 24 2658 0 2818 -29 198 -79 359
-169 546 -270 557 -792 939 -1406 1029 -93 14 -278 16 -1420 15 -723 -1 -1341
-5 -1374 -10z m2287 -1125 c48 -7 124 -27 170 -44 81 -30 188 -87 188 -101 0
-9 -152 -492 -156 -498 -1 -1 -20 11 -41 28 -74 60 -139 75 -313 76 -153 0
-156 0 -215 -30 -75 -37 -121 -97 -166 -212 -18 -46 -32 -90 -32 -96 0 -29
289 -681 582 -1312 l320 -690 -302 -3 c-166 -2 -352 0 -412 3 l-111 7 -171
516 c-135 405 -182 561 -218 722 -26 113 -48 206 -49 208 -2 1 -31 -107 -64
-241 -62 -248 -379 -1273 -427 -1381 -95 -214 -251 -361 -453 -427 -86 -28
-113 -32 -242 -37 -185 -6 -282 11 -395 68 -44 22 -93 51 -109 64 l-30 25 67
227 c37 125 69 229 70 231 2 2 26 -7 53 -19 42 -20 66 -23 164 -23 109 0 118
2 169 30 60 33 97 74 140 154 16 31 183 493 371 1026 188 534 360 1013 382
1065 119 283 281 480 478 580 189 96 479 129 752 84z m143 -2926 c107 -26 224
-130 267 -235 19 -47 23 -77 23 -159 0 -96 -2 -103 -38 -176 -44 -91 -102
-146 -197 -192 -59 -28 -74 -31 -165 -31 -91 0 -106 3 -166 31 -163 78 -247
218 -237 398 6 107 45 191 123 265 109 103 240 136 390 99z"/>
</g>
</svg>
